:SAMPLES-PER-SECOND 30
:FRAME-RANGE 1-744
:FULLY-SPECIFIED
:DEGREES
605
root  -100.317 38.2087 26.3763 -174.108 6.31912 -174.567
RightUpLeg  -14.1482 -1.35196 7.58486
RightLeg  17.3994 -22.2084 -1.89874
RightFoot  -10.48 -0.053009 -2.37602
RightToes  -5.28216e-011 1.2921e-014 -6.02303e-014
Spine  -1.12846 -1.94376 7.26481
Spine1  8.14557 -1.89717 -0.278573
HEad  22.0639 27.8459 -2.22671
LeftShoulder1  1.78032 -5.92664 -12.4601
LeftArm  -9.13129 -39.0961 -35.7231
LeftForeArm  34.3459 7.60436 -11.4138
LeftHand  0.016356 7.2233 3.24843
RightShoulder  1.99492 3.05413 25.332
RightArm  -30.4831 3.60647 44.5049
RightForeArm  67.1696 -4.86022 0.236437
RightHand  0.247495 -7.18933 -17.0144
LeftUpLeg  -24.3219 -3.15978 12.8376
LeftLeg  46.5122 8.20012 9.54858
LeftFoot  -5.16209 0.46995 -8.12494
LeftToes  -9.4837e-011 -7.11147e-011 -1.07582e-011
606
root  -99.9354 38.2497 25.8345 -173.715 8.28262 -174.969
RightUpLeg  -13.2422 -0.94803 7.83605
RightLeg  16.6753 -20.6165 -1.5836
RightFoot  -11.3277 -0.0762992 -2.47343
RightToes  -5.28216e-011 1.2921e-014 -6.02303e-014
Spine  -0.961878 -1.61694 7.0913
Spine1  7.55265 -1.54344 -0.876649
HEad  20.837 30.1916 -3.89735
LeftShoulder1  1.77428 -6.01841 -12.1784
LeftArm  -9.29607 -38.6516 -33.4299
LeftForeArm  36.978 7.62476 -11.8408
LeftHand  0.0158116 7.29 3.1311
RightShoulder  2.09303 3.41533 25.1037
RightArm  -28.5778 5.07842 43.6277
RightForeArm  66.0656 -5.10363 1.42631
RightHand  0.209927 -6.90864 -17.2304
LeftUpLeg  -26.2059 -4.01469 11.564
LeftLeg  42.3043 9.4142 9.43203
LeftFoot  -5.34512 0.437749 -7.73925
LeftToes  -9.4837e-011 -7.11147e-011 -1.07582e-011
607
root  -99.5842 38.3029 25.2611 -173.459 10.5123 -175.572
RightUpLeg  -12.1244 -1.52362 7.57923
RightLeg  15.9033 -18.0476 -0.578066
RightFoot  -12.3247 -0.108363 -2.91885
RightToes  -5.28216e-011 1.2921e-014 -6.02303e-014
Spine  -0.914024 -1.31096 6.7715
Spine1  7.19507 -1.17409 -1.56728
HEad  19.1735 31.8086 -5.80923
LeftShoulder1  1.71798 -5.7852 -12.033
LeftArm  -7.72721 -36.9702 -32.2144
LeftForeArm  40.1866 7.70182 -12.7745
LeftHand  -0.0295656 7.48401 0.579816
RightShoulder  2.18807 3.82872 24.616
RightArm  -27.1048 7.00361 43.4441
RightForeArm  65.073 -5.28455 2.28221
RightHand  0.20028 -6.79104 -17.7942
LeftUpLeg  -27.5871 -5.44838 10.4207
LeftLeg  36.8283 10.3513 8.56851
LeftFoot  -4.8622 0.462103 -7.64245
LeftToes  -9.4837e-011 -7.11147e-011 -1.07582e-011
608
root  -99.2608 38.3728 24.6205 -173.357 12.6914 -176.261
RightUpLeg  -10.7857 -1.91623 7.20097
RightLeg  15.1947 -15.6947 0.00529767
RightFoot  -13.1764 -0.136294 -2.94858
RightToes  -5.28216e-011 1.2921e-014 -6.02303e-014
Spine  -1.09807 -1.09439 6.41172
Spine1  7.10604 -0.89508 -2.20408
HEad  17.3837 32.793 -7.78662
LeftShoulder1  1.73689 -5.80206 -12.2242
LeftArm  -6.30152 -34.025 -31.7248
LeftForeArm  43.7385 7.57177 -13.3741
LeftHand  -0.0645727 7.63537 -1.10088
RightShoulder  2.15537 3.78993 24.3057
RightArm  -26.0964 9.56679 43.7511
RightForeArm  64.5464 -5.38417 2.76134
RightHand  0.178438 -6.65564 -17.6917
LeftUpLeg  -28.473 -7.38922 9.66507
LeftLeg  30.1558 10.2368 6.69884
LeftFoot  -3.59342 0.549165 -7.7844
LeftToes  -9.4837e-011 -7.11147e-011 -1.07582e-011
609
root  -98.9388 38.4392 23.8987 -173.513 15.1815 -176.984
RightUpLeg  -9.19882 -2.2328 6.72664
RightLeg  14.6911 -12.9612 0.280084
RightFoot  -13.9596 -0.16722 -3.18822
RightToes  -5.28216e-011 1.2921e-014 -6.02303e-014
Spine  -1.64402 -0.973995 5.90803
Spine1  7.68745 -0.741776 -2.57609
HEad  14.7982 33.0581 -9.89235
LeftShoulder1  1.72474 -5.15293 -13.681
LeftArm  -3.77771 -30.4366 -31.448
LeftForeArm  45.1239 7.23929 -14.1379
LeftHand  -0.107509 7.99931 -2.65903
RightShoulder  2.19226 4.17414 23.1839
RightArm  -25.8605 12.1369 45.366
RightForeArm  64.5536 -5.371 2.68438
RightHand  0.151751 -6.50033 -17.3959
LeftUpLeg  -28.7472 -8.99376 9.19374
LeftLeg  22.8291 9.32125 4.60094
LeftFoot  -1.56129 0.712886 -8.21453
LeftToes  -9.4837e-011 -7.11147e-011 -1.07582e-011
610
root  -98.6028 38.4691 23.1308 -173.69 17.5594 -177.53
RightUpLeg  -7.43562 -2.6729 6.25194
RightLeg  14.1206 -10.2695 0.696393
RightFoot  -14.8527 -0.205681 -3.43455
RightToes  -5.28216e-011 1.2921e-014 -6.02303e-014
Spine  -1.94025 -0.954302 5.43251
Spine1  7.92755 -0.627026 -3.06466
HEad  11.6489 32.7559 -11.7627
LeftShoulder1  1.75646 -4.88492 -14.8396
LeftArm  1.18998 -24.8615 -31.976
LeftForeArm  46.4797 6.41282 -15.1036
LeftHand  -0.152965 8.46254 -3.79925
RightShoulder  2.19794 4.35241 22.5406
RightArm  -25.2105 14.5193 47.0211
RightForeArm  64.2044 -5.41011 2.84244
RightHand  0.152383 -6.50661 -17.3686
LeftUpLeg  -29.06 -10.1913 9.06946
LeftLeg  16.0678 8.14163 2.95805
LeftFoot  -0.54422 0.702649 -7.39525
LeftToes  -9.4837e-011 -7.11147e-011 -1.07582e-011
611
root  -98.255 38.4541 22.3038 -173.889 20.0658 -177.801
RightUpLeg  -5.57257 -2.85978 5.97191
RightLeg  13.7361 -7.54539 0.897776
RightFoot  -15.8959 -0.262216 -3.89114
RightToes  -5.28216e-011 1.2921e-014 -6.02303e-014
Spine  -2.36461 -0.905941 5.24621
Spine1  8.51557 -0.436347 -3.6194
HEad  8.64449 32.4613 -12.9959
LeftShoulder1  1.72383 -4.31592 -16.1215
LeftArm  8.80267 -18.1997 -33.1699
LeftForeArm  45.6671 4.92633 -16.2076
LeftHand  -0.155231 9.12589 -3.10363
RightShoulder  2.19584 4.45682 22.1022
RightArm  -24.7497 16.8088 49.0219
RightForeArm  64.4427 -5.39566 2.80752
RightHand  0.104419 -6.19374 -17.1677
LeftUpLeg  -29.1161 -7.74327 7.26226
LeftLeg  10.4682 4.75231 2.97896
LeftFoot  -1.17349 0.694616 -7.72199
LeftToes  -9.4837e-011 -7.11147e-011 -1.07582e-011
612
root  -97.8967 38.3869 21.4252 -174.126 22.5667 -178.009
RightUpLeg  -3.79536 -3.21714 5.68257
RightLeg  13.8444 -5.04347 0.842822
RightFoot  -17.1664 -0.322229 -4.05138
RightToes  -5.28216e-011 1.2921e-014 -6.02303e-014
Spine  -2.34311 -0.725541 4.90863
Spine1  8.48415 -0.165974 -3.87427
HEad  6.86512 32.543 -13.6311
LeftShoulder1  1.64947 -3.65449 -17.2965
LeftArm  12.4145 -10.006 -35.2197
LeftForeArm  46.1752 4.35157 -16.4658
LeftHand  -0.149572 9.30487 -2.77864
RightShoulder  2.22178 4.68579 21.5872
RightArm  -23.8614 17.8425 50.8065
RightForeArm  64.3905 -5.45081 3.12564
RightHand  0.0760803 -6.00639 -17.0212
LeftUpLeg  -29.2252 -4.23672 4.91505
LeftLeg  5.82793 1.53097 3.71371
LeftFoot  -1.65215 0.67561 -7.84713
LeftToes  -9.4837e-011 -7.11147e-011 -1.07582e-011
613
root  -97.5327 38.2954 20.4808 -174.342 24.729 -178.216
RightUpLeg  -1.96713 -3.75171 5.14058
RightLeg  13.9275 -2.5162 0.982526
RightFoot  -18.4353 -0.383688 -4.17764
RightToes  -5.28216e-011 1.2921e-014 -6.02303e-014
Spine  -2.60644 -0.603402 4.57352
Spine1  8.6576 0.0688265 -4.16418
HEad  5.71712 32.6576 -13.3908
LeftShoulder1  1.5126 -2.86786 -18.1637
LeftArm  12.5528 -1.19737 -37.9467
LeftForeArm  46.9785 4.62396 -16.2972
LeftHand  -0.124958 9.10503 -2.22763
RightShoulder  2.18803 4.52346 21.7396
RightArm  -22.5637 18.6761 52.2374
RightForeArm  64.6566 -5.53365 3.67992
RightHand  0.106566 -6.25032 -16.4611
LeftUpLeg  -29.9675 -2.28723 3.84684
LeftLeg  3.37649 0.3581 3.52671
LeftFoot  -2.05484 0.655644 -7.91346
LeftToes  -9.4837e-011 -7.11147e-011 -1.07582e-011
614
root  -97.1523 38.1225 19.4566 -174.801 26.4289 -178.475
RightUpLeg  0.0320364 -3.93723 4.63862
RightLeg  14.3268 -0.917402 0.653763
RightFoot  -20.1515 -0.471774 -4.35303
RightToes  -5.28216e-011 1.2921e-014 -6.02303e-014
Spine  -2.92896 -0.56513 4.07725
Spine1  8.99987 0.192509 -4.29468
HEad  5.01253 31.5255 -12.5147
LeftShoulder1  1.37494 -2.11435 -19.0958
LeftArm  6.77519 7.82262 -41.0792
LeftForeArm  50.7533 5.96026 -15.2419
LeftHand  -0.101819 8.66945 -1.82065
RightShoulder  2.20531 4.49759 22.0747
RightArm  -21.3166 18.0551 53.2902
RightForeArm  63.4483 -4.39907 4.53495
RightHand  0.0787252 -6.08674 -15.7715
LeftUpLeg  -30.4541 -2.13869 3.27775
LeftLeg  2.20353 0.95229 3.6921
LeftFoot  -3.13257 0.566878 -7.63147
LeftToes  -9.4837e-011 -7.11147e-011 -1.07582e-011
615
root  -96.7373 37.9092 18.3647 -175.271 27.8038 -178.597
RightUpLeg  2.00534 -3.86704 4.17614
RightLeg  15.2427 -0.0477307 0.389049
RightFoot  -21.7326 -0.556281 -4.49834
RightToes  -5.28216e-011 1.2921e-014 -6.02303e-014
Spine  -3.18905 -0.492853 3.63556
Spine1  9.22521 0.258764 -4.18229
HEad  4.1273 27.9105 -11.1749
LeftShoulder1  1.07324 -0.733437 -20.3813
LeftArm  1.75147 15.5804 -44.0898
LeftForeArm  50.8936 6.85051 -14.2799
LeftHand  -0.0878414 7.3429 -2.62093
RightShoulder  2.08684 3.92364 22.7076
RightArm  -19.3899 17.5734 54.335
RightForeArm  60.6379 -0.835291 6.10061
RightHand  0.0141825 -5.60706 -15.6205
LeftUpLeg  -30.8018 -2.30192 3.03832
LeftLeg  2.32871 1.72968 3.66101
LeftFoot  -3.63089 0.516748 -7.33939
LeftToes  -9.4837e-011 -7.11147e-011 -1.07582e-011
616
root  -96.3118 37.6396 17.232 -175.872 28.952 -178.928
RightUpLeg  3.94952 -3.71093 3.40326
RightLeg  16.4467 0.78218 0.223461
RightFoot  -23.612 -0.646434 -4.52416
RightToes  -5.28216e-011 1.2921e-014 -6.02303e-014
Spine  -3.38655 -0.333989 3.13878
Spine1  9.58332 0.577778 -4.59497
HEad  3.33399 21.0372 -8.79368
LeftShoulder1  0.859602 0.18764 -21.4421
LeftArm  -4.4107 22.5279 -47.852
LeftForeArm  50.1565 7.39456 -13.0165
LeftHand  -0.058003 6.70278 -1.70232
RightShoulder  2.02369 3.52515 23.5053
RightArm  -17.5687 16.7656 54.9771
RightForeArm  58.2636 2.48785 7.53632
RightHand  -0.0557283 -5.07648 -15.4995
LeftUpLeg  -31.2418 -2.93335 2.78722
LeftLeg  4.10616 2.66311 3.67686
LeftFoot  -3.62588 0.547253 -7.78603
LeftToes  -9.4837e-011 -7.11147e-011 -1.07582e-011
